<svg xmlns="http://www.w3.org/2000/svg" width="1280" height="720" viewBox="0 0 1280 720">
  <rect width="1280" height="720" fill="#f8fafc"/>
  <rect x="30" y="30" width="1220" height="70" rx="14" fill="#0f172a"/>
  <text x="60" y="75" font-family="Arial" font-size="28" fill="#fff">Painel Admin — Gestão de Pendências</text>

  <rect x="50" y="130" width="760" height="540" rx="16" fill="#fff" stroke="#dbe4ef"/>
  <text x="80" y="175" font-family="Arial" font-size="22" fill="#0f172a">Agendamentos pendentes</text>
  <rect x="80" y="205" width="700" height="70" rx="10" fill="#fff7e6" stroke="#f6d58f"/>
  <rect x="80" y="290" width="700" height="70" rx="10" fill="#fff7e6" stroke="#f6d58f"/>
  <rect x="80" y="375" width="700" height="70" rx="10" fill="#fff7e6" stroke="#f6d58f"/>
  <rect x="80" y="470" width="150" height="46" rx="10" fill="#16a34a"/>
  <text x="108" y="500" font-family="Arial" font-size="17" fill="#fff">Confirmar</text>
  <rect x="245" y="470" width="150" height="46" rx="10" fill="#dc2626"/>
  <text x="278" y="500" font-family="Arial" font-size="17" fill="#fff">Cancelar</text>

  <rect x="840" y="130" width="390" height="260" rx="16" fill="#fff" stroke="#dbe4ef"/>
  <text x="870" y="175" font-family="Arial" font-size="22" fill="#0f172a">Webhook</text>
  <rect x="870" y="200" width="330" height="40" rx="8" fill="#f1f5f9"/>
  <rect x="870" y="255" width="200" height="42" rx="10" fill="#2563eb"/>
  <text x="910" y="283" font-family="Arial" font-size="17" fill="#fff">Testar envio</text>

  <rect x="840" y="410" width="390" height="260" rx="16" fill="#fff" stroke="#dbe4ef"/>
  <text x="870" y="455" font-family="Arial" font-size="22" fill="#0f172a">Eventos recentes</text>
  <text x="870" y="495" font-family="Arial" font-size="16" fill="#334155">• appointment.created — 200 OK</text>
  <text x="870" y="525" font-family="Arial" font-size="16" fill="#334155">• appointment.confirmed — 202 Accepted</text>
  <text x="870" y="555" font-family="Arial" font-size="16" fill="#334155">• appointment.canceled — Retry</text>
</svg>
