<svg xmlns="http://www.w3.org/2000/svg" width="1280" height="720" viewBox="0 0 1280 720">
  <rect width="1280" height="720" fill="#f1f5f9"/>
  <rect x="30" y="30" width="1220" height="70" rx="14" fill="#111827"/>
  <text x="60" y="75" font-family="Arial" font-size="28" fill="#fff">Dashboard — KPIs Operacionais</text>

  <rect x="50" y="130" width="280" height="140" rx="14" fill="#fff" stroke="#d9e2ec"/>
  <rect x="350" y="130" width="280" height="140" rx="14" fill="#fff" stroke="#d9e2ec"/>
  <rect x="650" y="130" width="280" height="140" rx="14" fill="#fff" stroke="#d9e2ec"/>
  <rect x="950" y="130" width="280" height="140" rx="14" fill="#fff" stroke="#d9e2ec"/>

  <text x="75" y="180" font-family="Arial" font-size="18" fill="#64748b">Pendentes</text>
  <text x="75" y="225" font-family="Arial" font-size="38" fill="#0f172a">37</text>

  <text x="375" y="180" font-family="Arial" font-size="18" fill="#64748b">Confirmados</text>
  <text x="375" y="225" font-family="Arial" font-size="38" fill="#0f172a">112</text>

  <text x="675" y="180" font-family="Arial" font-size="18" fill="#64748b">Cancelados</text>
  <text x="675" y="225" font-family="Arial" font-size="38" fill="#0f172a">14</text>

  <text x="975" y="180" font-family="Arial" font-size="18" fill="#64748b">Conversão</text>
  <text x="975" y="225" font-family="Arial" font-size="38" fill="#0f172a">75%</text>

  <rect x="50" y="300" width="760" height="370" rx="16" fill="#fff" stroke="#d9e2ec"/>
  <text x="80" y="345" font-family="Arial" font-size="22" fill="#0f172a">Funil semanal</text>
  <polyline points="90,610 220,550 350,520 480,470 610,430 740,390" fill="none" stroke="#2563eb" stroke-width="6"/>

  <rect x="840" y="300" width="390" height="370" rx="16" fill="#fff" stroke="#d9e2ec"/>
  <text x="870" y="345" font-family="Arial" font-size="22" fill="#0f172a">SLA e alertas</text>
  <text x="870" y="390" font-family="Arial" font-size="17" fill="#334155">Tempo médio confirmação: 2h18</text>
  <text x="870" y="425" font-family="Arial" font-size="17" fill="#334155">Webhook sucesso (24h): 98.2%</text>
  <text x="870" y="460" font-family="Arial" font-size="17" fill="#334155">Retries pendentes: 4</text>
</svg>
